ffmpeg version 4.2.7-0ubuntu0.1 Copyright (c) 2000-2022 the FFmpeg developers
  built with gcc 9 (Ubuntu 9.4.0-1ubuntu1~20.04.1)
  configuration: --prefix=/usr --extra-version=0ubuntu0.1 --toolchain=hardened --libdir=/usr/lib/x86_64-linux-gnu --incdir=/usr/include/x86_64-linux-gnu --arch=amd64 --enable-gpl --disable-stripping --enable-avresample --disable-filter=resample --enable-avisynth --enable-gnutls --enable-ladspa --enable-libaom --enable-libass --enable-libbluray --enable-libbs2b --enable-libcaca --enable-libcdio --enable-libcodec2 --enable-libflite --enable-libfontconfig --enable-libfreetype --enable-libfribidi --enable-libgme --enable-libgsm --enable-libjack --enable-libmp3lame --enable-libmysofa --enable-libopenjpeg --enable-libopenmpt --enable-libopus --enable-libpulse --enable-librsvg --enable-librubberband --enable-libshine --enable-libsnappy --enable-libsoxr --enable-libspeex --enable-libssh --enable-libtheora --enable-libtwolame --enable-libvidstab --enable-libvorbis --enable-libvpx --enable-libwavpack --enable-libwebp --enable-libx265 --enable-libxml2 --enable-libxvid --enable-libzmq --enable-libzvbi --enable-lv2 --enable-omx --enable-openal --enable-opencl --enable-opengl --enable-sdl2 --enable-libdc1394 --enable-libdrm --enable-libiec61883 --enable-nvenc --enable-chromaprint --enable-frei0r --enable-libx264 --enable-shared
  libavutil      56. 31.100 / 56. 31.100
  libavcodec     58. 54.100 / 58. 54.100
  libavformat    58. 29.100 / 58. 29.100
  libavdevice    58.  8.100 / 58.  8.100
  libavfilter     7. 57.100 /  7. 57.100
  libavresample   4.  0.  0 /  4.  0.  0
  libswscale      5.  5.100 /  5.  5.100
  libswresample   3.  5.100 /  3.  5.100
  libpostproc    55.  5.100 / 55.  5.100
Routing option strict to both codec and muxer layer
[h264 @ 0x560741e80540] Reinit context to 480x640, pix_fmt: yuv420p
Input #0, mov,mp4,m4a,3gp,3g2,mj2, from '/var/www/html/project/media/video/original/-5106447924688546285.MP4':
  Metadata:
    major_brand     : isom
    minor_version   : 512
    compatible_brands: isomiso2avc1mp41
    creation_time   : 2025-06-12T07:41:35.000000Z
  Duration: 00:00:13.77, start: 0.000000, bitrate: 943 kb/s
    Stream #0:0(eng): Audio: aac (LC) (mp4a / 0x6134706D), 44100 Hz, stereo, fltp, 54 kb/s (default)
    Metadata:
      creation_time   : 2025-06-12T07:41:20.000000Z
      handler_name    : SoundHandle
    Stream #0:1(eng): Video: h264 (High), 1 reference frame (avc1 / 0x31637661), yuv420p(tv, bt470bg/bt470bg/smpte170m, left), 480x640, 886 kb/s, 30 fps, 30 tbr, 90k tbn, 180k tbc (default)
    Metadata:
      creation_time   : 2025-06-12T07:41:21.000000Z
      handler_name    : VideoHandle
Input #1, png_pipe, from '/var/www/html/project/static/images/templates/logo_vertical.png':
  Duration: N/A, bitrate: N/A
    Stream #1:0: Video: png, 1 reference frame, rgba(pc), 1920x1080 [SAR 2835:2835 DAR 16:9], 25 tbr, 25 tbn, 25 tbc
[Parsed_scale_1 @ 0x560741ec63c0] w:1280 h:720 flags:'bilinear' interl:0
[Parsed_scale_4 @ 0x560741ed5600] w:-1 h:720 flags:'bilinear' interl:0
[Parsed_scale_6 @ 0x560741ec9a00] w:1280 h:720 flags:'bilinear' interl:0
Stream mapping:
  Stream #0:1 (h264) -> split (graph 0)
  Stream #1:0 (png) -> scale (graph 0)
  overlay (graph 0) -> Stream #0:0 (libx264)
  Stream #0:0 -> #0:1 (aac (native) -> aac (native))
Press [q] to stop, [?] for help
[graph_1_in_0_0 @ 0x56074224d980] tb:1/44100 samplefmt:fltp samplerate:44100 chlayout:0x3
[h264 @ 0x560741ed98c0] Reinit context to 480x640, pix_fmt: yuv420p
[Parsed_scale_1 @ 0x560741ed1280] w:1280 h:720 flags:'bilinear' interl:0
[Parsed_scale_4 @ 0x5607424d3580] w:-1 h:720 flags:'bilinear' interl:0
[Parsed_scale_6 @ 0x5607424d4e80] w:1280 h:720 flags:'bilinear' interl:0
[graph 0 input from stream 0:1 @ 0x5607424d8300] w:480 h:640 pixfmt:yuv420p tb:1/90000 fr:30/1 sar:0/1 sws_param:flags=2
[graph 0 input from stream 1:0 @ 0x5607424d92c0] w:1920 h:1080 pixfmt:rgba tb:1/25 fr:25/1 sar:2835/2835 sws_param:flags=2
[Parsed_scale_1 @ 0x560741ed1280] w:480 h:640 fmt:yuv420p sar:0/1 -> w:1280 h:720 fmt:yuv420p sar:0/1 flags:0x2
[Parsed_boxblur_2 @ 0x5607424d08c0] luma_radius:36 luma_power:1 chroma_radius:18 chroma_power:1 alpha_radius:36 alpha_power:1 w:1280 chroma_w:640 h:720 chroma_h:360
[Parsed_setsar_3 @ 0x5607424d27c0] w:1280 h:720 sar:0/1 dar:16/9 -> sar:1/1 dar:16/9
[Parsed_scale_4 @ 0x5607424d3580] w:480 h:640 fmt:yuv420p sar:0/1 -> w:540 h:720 fmt:yuva420p sar:0/1 flags:0x2
[Parsed_setsar_5 @ 0x5607424d4180] w:540 h:720 sar:0/1 dar:3/4 -> sar:1/1 dar:3/4
[Parsed_overlay_8 @ 0x5607424d6600] main w:1280 h:720 fmt:yuv420p overlay w:540 h:720 fmt:yuva420p
[Parsed_overlay_8 @ 0x5607424d6600] [framesync @ 0x5607424d6728] Selected 1/90000 time base
[Parsed_overlay_8 @ 0x5607424d6600] [framesync @ 0x5607424d6728] Sync level 2
[Parsed_scale_6 @ 0x5607424d4e80] w:1920 h:1080 fmt:rgba sar:2835/2835 -> w:1280 h:720 fmt:yuva420p sar:1/1 flags:0x2
[Parsed_setsar_7 @ 0x5607424d59c0] w:1280 h:720 sar:1/1 dar:16/9 -> sar:1/1 dar:16/9
[Parsed_overlay_9 @ 0x5607424d74c0] main w:1280 h:720 fmt:yuv420p overlay w:1280 h:720 fmt:yuva420p
[Parsed_overlay_9 @ 0x5607424d74c0] [framesync @ 0x5607424d7628] Selected 1/90000 time base
[Parsed_overlay_9 @ 0x5607424d74c0] [framesync @ 0x5607424d7628] Sync level 2
[libx264 @ 0x560741e96cc0] using SAR=1/1
[libx264 @ 0x560741e96cc0] using cpu capabilities: MMX2 SSE2Fast SSSE3 SSE4.2 AVX FMA3 BMI2 AVX2
[libx264 @ 0x560741e96cc0] profile High, level 3.1
[libx264 @ 0x560741e96cc0] 264 - core 155 r2917 0a84d98 - H.264/MPEG-4 AVC codec - Copyleft 2003-2018 - http://www.videolan.org/x264.html - options: cabac=1 ref=1 deblock=1:0:0 analyse=0x3:0x113 me=hex subme=2 psy=1 psy_rd=1.00:0.00 mixed_ref=0 me_range=16 chroma_me=1 trellis=0 8x8dct=1 cqm=0 deadzone=21,11 fast_pskip=1 chroma_qp_offset=0 threads=22 lookahead_threads=5 sliced_threads=0 nr=0 decimate=1 interlaced=0 bluray_compat=0 constrained_intra=0 bframes=3 b_pyramid=2 b_adapt=1 b_bias=0 direct=1 weightb=1 open_gop=0 weightp=1 keyint=250 keyint_min=25 scenecut=40 intra_refresh=0 rc_lookahead=10 rc=crf mbtree=1 crf=18.0 qcomp=0.60 qpmin=0 qpmax=69 qpstep=4 ip_ratio=1.40 aq=1:1.00
Output #0, mp4, to '/var/www/html/project/media/video/watermarks/-5106447924688546285.mp4':
  Metadata:
    major_brand     : isom
    minor_version   : 512
    compatible_brands: isomiso2avc1mp41
    encoder         : Lavf58.29.100
    Stream #0:0: Video: h264 (libx264), 1 reference frame (avc1 / 0x31637661), yuv420p, 1280x720 [SAR 1:1 DAR 16:9], q=-1--1, 30 fps, 15360 tbn, 30 tbc (default)
    Metadata:
      encoder         : Lavc58.54.100 libx264
    Side data:
      cpb: bitrate max/min/avg: 0/0/0 buffer size: 0 vbv_delay: -1
    Stream #0:1(eng): Audio: aac (LC) (mp4a / 0x6134706D), 44100 Hz, stereo, fltp, delay 1024, 128 kb/s (default)
    Metadata:
      creation_time   : 2025-06-12T07:41:20.000000Z
      handler_name    : SoundHandle
      encoder         : Lavc58.54.100 aac
[Parsed_overlay_8 @ 0x5607424d6600] [framesync @ 0x5607424d6728] Sync level 1
[Parsed_overlay_8 @ 0x5607424d6600] [framesync @ 0x5607424d6728] Sync level 0
[Parsed_overlay_9 @ 0x5607424d74c0] [framesync @ 0x5607424d7628] Sync level 0
No more output streams to write to, finishing.
frame=  411 fps= 33 q=-1.0 Lsize=    7826kB time=00:00:13.76 bitrate=4655.9kbits/s speed=1.12x    
[AVIOContext @ 0x560741e7cd00] Statistics: 0 seeks, 24 writeouts
video:7593kB audio:217kB subtitle:0kB other streams:0kB global headers:0kB muxing overhead: 0.199757%
Input file #0 (/var/www/html/project/media/video/original/-5106447924688546285.MP4):
  Input stream #0:0 (audio): 593 packets read (94456 bytes); 593 frames decoded (607232 samples); 
  Input stream #0:1 (video): 411 packets read (1518673 bytes); 411 frames decoded; 
  Total: 1004 packets (1613129 bytes) demuxed
Input file #1 (/var/www/html/project/static/images/templates/logo_vertical.png):
  Input stream #1:0 (video): 1 packets read (93903 bytes); 1 frames decoded; 
  Total: 1 packets (93903 bytes) demuxed
Output file #0 (/var/www/html/project/media/video/watermarks/-5106447924688546285.mp4):
  Output stream #0:0 (video): 411 frames encoded; 411 packets muxed (7775357 bytes); 
  Output stream #0:1 (audio): 593 frames encoded (607232 samples); 594 packets muxed (222347 bytes); 
  Total: 1005 packets (7997704 bytes) muxed
[AVIOContext @ 0x560741ec53c0] Statistics: 2 seeks, 34 writeouts
[libx264 @ 0x560741e96cc0] frame I:2     Avg QP:16.90  size: 41356
[libx264 @ 0x560741e96cc0] frame P:167   Avg QP:19.11  size: 26037
[libx264 @ 0x560741e96cc0] frame B:242   Avg QP:19.77  size: 13817
[libx264 @ 0x560741e96cc0] consecutive B-frames: 14.6% 17.5%  9.5% 58.4%
[libx264 @ 0x560741e96cc0] mb I  I16..4: 29.6% 46.9% 23.5%
[libx264 @ 0x560741e96cc0] mb P  I16..4: 27.2% 43.8%  5.9%  P16..4: 11.6%  7.2%  3.2%  0.0%  0.0%    skip: 1.1%
[libx264 @ 0x560741e96cc0] mb B  I16..4: 11.3% 11.8%  0.7%  B16..8: 28.5% 12.1%  1.0%  direct:18.7%  skip:16.0%  L0:43.8% L1:49.3% BI: 6.9%
[libx264 @ 0x560741e96cc0] 8x8 transform intra:54.6% inter:32.7%
[libx264 @ 0x560741e96cc0] coded y,uvDC,uvAC intra: 34.4% 71.4% 23.9% inter: 10.5% 66.8% 5.9%
[libx264 @ 0x560741e96cc0] i16 v,h,dc,p: 32% 29% 11% 29%
[libx264 @ 0x560741e96cc0] i8 v,h,dc,ddl,ddr,vr,hd,vl,hu: 25% 32% 15%  4%  5%  5%  6%  4%  4%
[libx264 @ 0x560741e96cc0] i4 v,h,dc,ddl,ddr,vr,hd,vl,hu: 35% 23% 12%  4%  6%  6%  6%  4%  4%
[libx264 @ 0x560741e96cc0] i8c dc,h,v,p: 36% 26% 18% 20%
[libx264 @ 0x560741e96cc0] Weighted P-Frames: Y:13.8% UV:13.8%
[libx264 @ 0x560741e96cc0] kb/s:4539.95
[aac @ 0x560741ee6080] Qavg: 598.765
[AVIOContext @ 0x560741e85cc0] Statistics: 1668981 bytes read, 2 seeks
[AVIOContext @ 0x560741e8de80] Statistics: 93903 bytes read, 0 seeks
